<svg version="1.1" viewBox="0.0 0.0 100.0 280.18110236220474" fill="none" stroke="none" stroke-linecap="square" stroke-miterlimit="10" xmlns:xlink="http://www.w3.org/1999/xlink" xmlns="http://www.w3.org/2000/svg"><clipPath id="p.0"><path d="m0 0l100.0 0l0 280.1811l-100.0 0l0 -280.1811z" clip-rule="nonzero"/></clipPath><g clip-path="url(#p.0)"><path fill="#000000" fill-opacity="0.0" d="m0 0l100.0 0l0 280.1811l-100.0 0z" fill-rule="evenodd"/><path fill="#000000" fill-opacity="0.0" d="m0 42.913387l0 0c0 -23.70041 19.79113 -42.913387 44.204723 -42.913387l0 0c11.723824 0 22.967464 4.521219 31.257458 12.569039c8.290001 8.047822 12.947266 18.963009 12.947266 30.344349l0 0c0 23.700405 -19.79113 42.913387 -44.204723 42.913387l0 0c-24.413593 0 -44.204723 -19.212982 -44.204723 -42.913387z" fill-rule="evenodd"/><path stroke="#000000" stroke-width="1.0" stroke-linejoin="round" stroke-linecap="butt" d="m0 42.913387l0 0c0 -23.70041 19.79113 -42.913387 44.204723 -42.913387l0 0c11.723824 0 22.967464 4.521219 31.257458 12.569039c8.290001 8.047822 12.947266 18.963009 12.947266 30.344349l0 0c0 23.700405 -19.79113 42.913387 -44.204723 42.913387l0 0c-24.413593 0 -44.204723 -19.212982 -44.204723 -42.913387z" fill-rule="evenodd"/><path fill="#000000" fill-opacity="0.0" d="m44.204723 85.826775l-1.921257 134.51968" fill-rule="evenodd"/><path stroke="#000000" stroke-width="1.0" stroke-linejoin="round" stroke-linecap="butt" d="m44.204723 85.826775l-1.921257 134.51968" fill-rule="evenodd"/><path fill="#000000" fill-opacity="0.0" d="m39.716534 219.07349l19.2126 56.37796" fill-rule="evenodd"/><path stroke="#000000" stroke-width="1.0" stroke-linejoin="round" stroke-linecap="butt" d="m39.716534 219.07349l19.2126 56.37796" fill-rule="evenodd"/><path fill="#000000" fill-opacity="0.0" d="m40.997375 219.07349l-23.055119 56.37796" fill-rule="evenodd"/><path stroke="#000000" stroke-width="1.0" stroke-linejoin="round" stroke-linecap="butt" d="m40.997375 219.07349l-23.055119 56.37796" fill-rule="evenodd"/><path fill="#000000" fill-opacity="0.0" d="m44.839893 126.83202l15.370079 46.110237" fill-rule="evenodd"/><path stroke="#000000" stroke-width="1.0" stroke-linejoin="round" stroke-linecap="butt" d="m44.839893 126.83202l15.370079 46.110237" fill-rule="evenodd"/><path fill="#000000" fill-opacity="0.0" d="m42.278214 122.9895l-20.503935 48.692917" fill-rule="evenodd"/><path stroke="#000000" stroke-width="1.0" stroke-linejoin="round" stroke-linecap="butt" d="m42.278214 122.9895l-20.503935 48.692917" fill-rule="evenodd"/><path fill="#000000" d="m27.020998 25.871391l0 0c0 -1.5133476 1.2268105 -2.740158 2.7401562 -2.740158l0 0c0.72673607 0 1.423706 0.28869438 1.9375839 0.80257416c0.5138817 0.5138798 0.80257416 1.2108479 0.80257416 1.9375839l0 0c0 1.5133476 -1.2268105 2.740158 -2.740158 2.740158l0 0c-1.5133457 0 -2.7401562 -1.2268105 -2.7401562 -2.740158z" fill-rule="evenodd"/><path stroke="#000000" stroke-width="1.0" stroke-linejoin="round" stroke-linecap="butt" d="m27.020998 25.871391l0 0c0 -1.5133476 1.2268105 -2.740158 2.7401562 -2.740158l0 0c0.72673607 0 1.423706 0.28869438 1.9375839 0.80257416c0.5138817 0.5138798 0.80257416 1.2108479 0.80257416 1.9375839l0 0c0 1.5133476 -1.2268105 2.740158 -2.740158 2.740158l0 0c-1.5133457 0 -2.7401562 -1.2268105 -2.7401562 -2.740158z" fill-rule="evenodd"/><path fill="#000000" d="m53.44882 25.871391l0 0c0 -1.5133476 1.2268105 -2.740158 2.740158 -2.740158l0 0c0.72673416 0 1.423706 0.28869438 1.9375839 0.80257416c0.51387787 0.5138798 0.80257416 1.2108479 0.80257416 1.9375839l0 0c0 1.5133476 -1.2268105 2.740158 -2.740158 2.740158l0 0c-1.5133476 0 -2.740158 -1.2268105 -2.740158 -2.740158z" fill-rule="evenodd"/><path stroke="#000000" stroke-width="1.0" stroke-linejoin="round" stroke-linecap="butt" d="m53.44882 25.871391l0 0c0 -1.5133476 1.2268105 -2.740158 2.740158 -2.740158l0 0c0.72673416 0 1.423706 0.28869438 1.9375839 0.80257416c0.51387787 0.5138798 0.80257416 1.2108479 0.80257416 1.9375839l0 0c0 1.5133476 -1.2268105 2.740158 -2.740158 2.740158l0 0c-1.5133476 0 -2.740158 -1.2268105 -2.740158 -2.740158z" fill-rule="evenodd"/><path fill="#000000" fill-opacity="0.0" d="m31.509186 59.525154c1.7445335 -0.83071136 6.9776917 -4.9011383 10.467194 -4.984253c3.4894981 -0.083114624 8.724846 3.7379684 10.469814 4.485565" fill-rule="evenodd"/><path stroke="#000000" stroke-width="1.0" stroke-linejoin="round" stroke-linecap="butt" d="m31.509186 59.525154c1.7445335 -0.83071136 6.9776917 -4.9011383 10.467194 -4.984253c3.4894981 -0.083114624 8.724846 3.7379684 10.469814 4.485565" fill-rule="evenodd"/><path fill="#000000" fill-opacity="0.0" d="m28.018373 15.154856l9.480314 1.984251" fill-rule="evenodd"/><path stroke="#000000" stroke-width="1.0" stroke-linejoin="round" stroke-linecap="butt" d="m28.018373 15.154856l9.480314 1.984251" fill-rule="evenodd"/><path fill="#000000" fill-opacity="0.0" d="m55.937008 14.15748l-6.9921265 2.9921265" fill-rule="evenodd"/><path stroke="#000000" stroke-width="1.0" stroke-linejoin="round" stroke-linecap="butt" d="m55.937008 14.15748l-6.9921265 2.9921265" fill-rule="evenodd"/></g></svg>