<svg version="1.1" viewBox="0.0 0.0 967.1784776902887 534.3595800524935" fill="none" stroke="none" stroke-linecap="square" stroke-miterlimit="10" xmlns:xlink="http://www.w3.org/1999/xlink" xmlns="http://www.w3.org/2000/svg"><clipPath id="p.0"><path d="m0 0l967.17847 0l0 534.35956l-967.17847 0l0 -534.35956z" clip-rule="nonzero"/></clipPath><g clip-path="url(#p.0)"><path fill="#000000" fill-opacity="0.0" d="m0 0l967.17847 0l0 534.35956l-967.17847 0z" fill-rule="evenodd"/><path fill="#b6d7a8" d="m0 306.2152l0 0c0 -38.56424 78.63572 -69.82675 175.6378 -69.82675l0 0c97.00206 0 175.6378 31.262512 175.6378 69.82675l0 0c0 38.56427 -78.63574 69.82678 -175.6378 69.82678l0 0c-97.00208 0 -175.6378 -31.262512 -175.6378 -69.82678z" fill-rule="evenodd"/><path fill="#b6d7a8" d="m260.35165 522.8411l0 0c-19.142975 -14.498535 -8.5529175 -60.729553 23.653534 -103.25983l0 0c32.206482 -42.530273 73.833405 -65.254456 92.97638 -50.75589l0 0c19.142975 14.498566 8.5529175 60.729553 -23.653534 103.25983l0 0c-32.206482 42.530304 -73.833405 65.254486 -92.97638 50.75589z" fill-rule="evenodd"/><path fill="#b6d7a8" d="m871.1377 513.3222l0 0c-19.33435 14.255066 -60.67218 -8.997925 -92.33075 -51.93698l0 0c-31.658508 -42.939056 -41.649292 -89.304016 -22.314941 -103.55905l0 0c19.33429 -14.255035 60.67218 8.997955 92.33069 51.93698l0 0c31.65857 42.939056 41.649292 89.30405 22.315002 103.55905z" fill-rule="evenodd"/><path fill="#b6d7a8" d="m960.00024 258.73514l0 0c0 12.341583 -30.078003 22.346436 -67.18109 22.346436l0 0c-37.10315 0 -67.18115 -10.004852 -67.18115 -22.346436l0 0c0 -12.341614 30.078003 -22.346466 67.18115 -22.346466l0 0c37.10309 0 67.18109 10.004852 67.18109 22.346466z" fill-rule="evenodd"/><path fill="#6aa84f" d="m125.808395 245.2021l0 0c0 -119.57182 180.39046 -216.50394 402.9134 -216.50394l0 0c222.52289 0 402.9134 96.93211 402.9134 216.50394l0 0c0 119.57182 -180.3905 216.50392 -402.9134 216.50392l0 0c-222.52295 0 -402.9134 -96.9321 -402.9134 -216.50392z" fill-rule="evenodd"/><path fill="#000000" d="m45.097115 286.8504l0 0c0 -6.7230835 4.589962 -12.173248 10.251968 -12.173248l0 0c2.7189903 0 5.326618 1.2825317 7.2492332 3.5654602c1.9226189 2.2829285 3.0027351 5.379242 3.0027351 8.607788l0 0c0 6.7230835 -4.589966 12.173218 -10.251968 12.173218l0 0c-5.6620064 0 -10.251968 -5.4501343 -10.251968 -12.173218z" fill-rule="evenodd"/><path stroke="#000000" stroke-width="1.0" stroke-linejoin="round" stroke-linecap="butt" d="m45.097115 286.8504l0 0c0 -6.7230835 4.589962 -12.173248 10.251968 -12.173248l0 0c2.7189903 0 5.326618 1.2825317 7.2492332 3.5654602c1.9226189 2.2829285 3.0027351 5.379242 3.0027351 8.607788l0 0c0 6.7230835 -4.589966 12.173218 -10.251968 12.173218l0 0c-5.6620064 0 -10.251968 -5.4501343 -10.251968 -12.173218z" fill-rule="evenodd"/><path fill="#7f6000" d="m251.35957 137.59317c8.540695 17.722672 51.884506 73.66667 51.244095 106.33597c-0.6404114 32.66928 -45.905518 74.733154 -55.08661 89.67978" fill-rule="evenodd"/><path fill="#7f6000" d="m365.38058 94.03674c9.181519 22.419952 57.010925 84.9825 55.089233 134.51968c-1.9216919 49.5372 -55.516174 135.58618 -66.619415 162.70343" fill-rule="evenodd"/><path fill="#7f6000" d="m494.77692 73.538055c4.910736 30.960632 27.542847 127.04506 29.464539 185.7638c1.9216919 58.71872 -14.9453125 138.79047 -17.934357 166.54855" fill-rule="evenodd"/><path fill="#7f6000" d="m613.92126 79.94226c1.06781 29.466316 -1.7069092 121.28171 6.4067993 176.79788c8.11377 55.516205 35.229675 130.24936 42.275635 156.29922" fill-rule="evenodd"/><path fill="#7f6000" d="m744.5974 129.90814c-0.64086914 20.711716 -9.183289 86.47681 -3.8451538 124.27034c5.338135 37.793533 29.89502 85.40901 35.874023 102.4908" fill-rule="evenodd"/></g></svg>