<svg version="1.1" viewBox="0.0 0.0 100.0 280.18110236220474" fill="none" stroke="none" stroke-linecap="square" stroke-miterlimit="10" xmlns:xlink="http://www.w3.org/1999/xlink" xmlns="http://www.w3.org/2000/svg"><clipPath id="p.0"><path d="m0 0l100.0 0l0 280.1811l-100.0 0l0 -280.1811z" clip-rule="nonzero"/></clipPath><g clip-path="url(#p.0)"><path fill="#000000" fill-opacity="0.0" d="m0 0l100.0 0l0 280.1811l-100.0 0z" fill-rule="evenodd"/><path fill="#000000" fill-opacity="0.0" d="m88.40945 42.913387l0 0c0 -23.70041 -19.79113 -42.913387 -44.204723 -42.913387l0 0c-11.72382 0 -22.967466 4.521219 -31.25746 12.569039c-8.289993 8.047822 -12.947264 18.963009 -12.947264 30.344349l0 0c0 23.700405 19.79113 42.913387 44.204723 42.913387l0 0c24.413593 0 44.204723 -19.212982 44.204723 -42.913387z" fill-rule="evenodd"/><path stroke="#000000" stroke-width="1.0" stroke-linejoin="round" stroke-linecap="butt" d="m88.40945 42.913387l0 0c0 -23.70041 -19.79113 -42.913387 -44.204723 -42.913387l0 0c-11.72382 0 -22.967466 4.521219 -31.25746 12.569039c-8.289993 8.047822 -12.947264 18.963009 -12.947264 30.344349l0 0c0 23.700405 19.79113 42.913387 44.204723 42.913387l0 0c24.413593 0 44.204723 -19.212982 44.204723 -42.913387z" fill-rule="evenodd"/><path fill="#000000" fill-opacity="0.0" d="m44.204723 85.826775l1.9212608 134.51968" fill-rule="evenodd"/><path stroke="#000000" stroke-width="1.0" stroke-linejoin="round" stroke-linecap="butt" d="m44.204723 85.826775l1.9212608 134.51968" fill-rule="evenodd"/><path fill="#000000" fill-opacity="0.0" d="m46.125984 220.06561l-37.54331 -16.944885" fill-rule="evenodd"/><path stroke="#000000" stroke-width="1.0" stroke-linejoin="round" stroke-linecap="butt" d="m46.125984 220.06561l-37.54331 -16.944885" fill-rule="evenodd"/><path fill="#000000" fill-opacity="0.0" d="m47.412075 219.07349l30.960629 48.850403" fill-rule="evenodd"/><path stroke="#000000" stroke-width="1.0" stroke-linejoin="round" stroke-linecap="butt" d="m47.412075 219.07349l30.960629 48.850403" fill-rule="evenodd"/><path fill="#000000" fill-opacity="0.0" d="m43.569553 126.83202l-33.51181 -14.960632" fill-rule="evenodd"/><path stroke="#000000" stroke-width="1.0" stroke-linejoin="round" stroke-linecap="butt" d="m43.569553 126.83202l-33.51181 -14.960632" fill-rule="evenodd"/><path fill="#000000" fill-opacity="0.0" d="m46.131233 122.9895l39.716537 46.708664" fill-rule="evenodd"/><path stroke="#000000" stroke-width="1.0" stroke-linejoin="round" stroke-linecap="butt" d="m46.131233 122.9895l39.716537 46.708664" fill-rule="evenodd"/><path fill="#000000" d="m28.199474 24.874016l0 0c0 -1.5133476 -1.2268105 -2.740158 -2.7401562 -2.740158l0 0c-0.72673607 0 -1.423706 0.28869438 -1.9375839 0.80257416c-0.5138798 0.5138798 -0.80257416 1.2108498 -0.80257416 1.9375839l0 0c0 1.5133476 1.2268105 2.740158 2.740158 2.740158l0 0c1.5133457 0 2.7401562 -1.2268105 2.7401562 -2.740158z" fill-rule="evenodd"/><path stroke="#000000" stroke-width="1.0" stroke-linejoin="round" stroke-linecap="butt" d="m28.199474 24.874016l0 0c0 -1.5133476 -1.2268105 -2.740158 -2.7401562 -2.740158l0 0c-0.72673607 0 -1.423706 0.28869438 -1.9375839 0.80257416c-0.5138798 0.5138798 -0.80257416 1.2108498 -0.80257416 1.9375839l0 0c0 1.5133476 1.2268105 2.740158 2.740158 2.740158l0 0c1.5133457 0 2.7401562 -1.2268105 2.7401562 -2.740158z" fill-rule="evenodd"/><path fill="#000000" fill-opacity="0.0" d="m28.188976 58.031498l-20.125984 -4.0" fill-rule="evenodd"/><path stroke="#000000" stroke-width="1.0" stroke-linejoin="round" stroke-linecap="butt" d="m28.188976 58.031498l-20.125984 -4.0" fill-rule="evenodd"/><path fill="#000000" fill-opacity="0.0" d="m31.010498 15.154856l7.968506 6.4881897" fill-rule="evenodd"/><path stroke="#000000" stroke-width="1.0" stroke-linejoin="round" stroke-linecap="butt" d="m31.010498 15.154856l7.968506 6.4881897" fill-rule="evenodd"/></g></svg>